<svg xmlns="http://www.w3.org/2000/svg" xmlns:xlink="http://www.w3.org/1999/xlink" version="1.0" viewBox="0 0 375 374.999991"><defs><path id="a" d="m118.007812 80.25 125.183594-14.308594 13.625 119.226563-125.183594 14.304687Zm0 0"/><path id="b" d="m242.816406 61.308594-125.1875 14.308594 16.523438 144.558593 125.183594-14.308593Zm0 0"/><path id="j" fill-opacity=".3" d="M-37.5-37.499999h450V412.49999h-450z"/><path id="c" d="M-68.992188-59.75 56.191406-74.058594l13.625 119.226563-125.183594 14.304687Zm0 0"/><path id="d" d="m55.816406-78.691406-125.1875 14.308594 16.523438 144.558593L72.335938 65.867188Zm0 0"/><path id="e" d="m118.007812 84.070312 122.949219-14.050781 13.371094 116.988281-122.949219 14.050782Zm0 0"/><path id="f" d="M240.3125 63.570312 117.363281 77.621094l16.265625 142.324218 122.949219-14.050781Zm0 0"/><path id="g" d="M-67.992188-56.929688 54.957031-70.980469 68.328125 46.007812-54.621094 60.058594Zm0 0"/><path id="h" d="M54.3125-77.429688-68.636719-63.378906l16.265625 142.324218L70.578125 64.894531Zm0 0"/></defs><defs><clipPath id="k"><path d="M92.875 70.757812h196.511719V261.3125H92.875Zm0 0"/></clipPath><clipPath id="l"><path d="M191.085938 70.757812c-54.238282 0-98.210938 42.65625-98.210938 95.277344s43.972656 95.277344 98.210938 95.277344c54.238281 0 98.207031-42.65625 98.207031-95.277344s-43.96875-95.277344-98.207031-95.277344Zm0 0"/></clipPath><clipPath id="m"><path d="M211 130h13v8h-13Zm0 0"/></clipPath><clipPath id="n"><use xlink:href="#a"/></clipPath><clipPath id="o"><use xlink:href="#b"/></clipPath><clipPath id="p"><path d="M170 135h8v7h-8Zm0 0"/></clipPath><clipPath id="q"><use xlink:href="#a"/></clipPath><clipPath id="r"><use xlink:href="#b"/></clipPath><clipPath id="s"><path d="M145 136h13v8h-13Zm0 0"/></clipPath><clipPath id="t"><use xlink:href="#a"/></clipPath><clipPath id="u"><use xlink:href="#b"/></clipPath><clipPath id="v"><path d="M125 129h132v71H125Zm0 0"/></clipPath><clipPath id="w"><use xlink:href="#a"/></clipPath><clipPath id="x"><use xlink:href="#b"/></clipPath><clipPath id="y"><path d="M186 140h70v60h-70Zm0 0"/></clipPath><clipPath id="z"><use xlink:href="#a"/></clipPath><clipPath id="A"><use xlink:href="#b"/></clipPath><clipPath id="D"><path d="M1 1h68v58.679688H1Zm0 0"/></clipPath><clipPath id="E"><path d="M-67.992188-59.75 57.191406-74.058594l13.625 119.226563-125.183594 14.304687Zm0 0"/></clipPath><clipPath id="F"><path d="m56.816406-78.691406-125.1875 14.308594 16.523438 144.558593L73.335938 65.867188Zm0 0"/></clipPath><clipPath id="C"><path d="M0 0h70v60H0z"/></clipPath><clipPath id="G"><path d="M126 148h62v50h-62Zm0 0"/></clipPath><clipPath id="H"><use xlink:href="#a"/></clipPath><clipPath id="I"><use xlink:href="#b"/></clipPath><clipPath id="J"><path d="M126 149h62v49h-62Zm0 0"/></clipPath><clipPath id="K"><use xlink:href="#a"/></clipPath><clipPath id="L"><use xlink:href="#b"/></clipPath><clipPath id="O"><path d="M.238281 1H61v47H.238281Zm0 0"/></clipPath><clipPath id="P"><path d="m-7.992188-68.75 125.183594-14.308594 13.625 119.226563L5.632812 50.472656Zm0 0"/></clipPath><clipPath id="Q"><path d="m116.816406-87.691406-125.1875 14.308594L8.152344 71.175781l125.183594-14.308593Zm0 0"/></clipPath><clipPath id="N"><path d="M0 0h62v49H0z"/></clipPath><clipPath id="R"><path d="M207 138h8v5h-8Zm0 0"/></clipPath><clipPath id="S"><use xlink:href="#a"/></clipPath><clipPath id="T"><use xlink:href="#b"/></clipPath><clipPath id="U"><path d="M199 139h8v5h-8Zm0 0"/></clipPath><clipPath id="V"><use xlink:href="#a"/></clipPath><clipPath id="W"><use xlink:href="#b"/></clipPath><clipPath id="X"><path d="M191 140h8v4h-8Zm0 0"/></clipPath><clipPath id="Y"><use xlink:href="#a"/></clipPath><clipPath id="Z"><use xlink:href="#b"/></clipPath><clipPath id="aa"><path d="M183 141h8v4h-8Zm0 0"/></clipPath><clipPath id="ab"><use xlink:href="#a"/></clipPath><clipPath id="ac"><use xlink:href="#b"/></clipPath><clipPath id="ad"><path d="M149 74h10v65h-10Zm0 0"/></clipPath><clipPath id="ae"><use xlink:href="#a"/></clipPath><clipPath id="af"><use xlink:href="#b"/></clipPath><clipPath id="ag"><path d="M187 140h67v60h-67Zm0 0"/></clipPath><clipPath id="ah"><use xlink:href="#a"/></clipPath><clipPath id="ai"><use xlink:href="#b"/></clipPath><clipPath id="al"><path d="M57 1h9.679688v58.679688H57Zm0 0"/></clipPath><clipPath id="am"><use xlink:href="#c"/></clipPath><clipPath id="an"><use xlink:href="#d"/></clipPath><clipPath id="ao"><path d="M54 1h9v58.679688h-9Zm0 0"/></clipPath><clipPath id="ap"><use xlink:href="#c"/></clipPath><clipPath id="aq"><use xlink:href="#d"/></clipPath><clipPath id="ar"><path d="M50 1h10v58.679688H50Zm0 0"/></clipPath><clipPath id="as"><use xlink:href="#c"/></clipPath><clipPath id="at"><use xlink:href="#d"/></clipPath><clipPath id="au"><path d="M47 2h9v57.679688h-9Zm0 0"/></clipPath><clipPath id="av"><use xlink:href="#c"/></clipPath><clipPath id="aw"><use xlink:href="#d"/></clipPath><clipPath id="ax"><path d="M43 2h10v57.679688H43Zm0 0"/></clipPath><clipPath id="ay"><use xlink:href="#c"/></clipPath><clipPath id="az"><use xlink:href="#d"/></clipPath><clipPath id="aA"><path d="M40 3h9v56.679688h-9Zm0 0"/></clipPath><clipPath id="aB"><use xlink:href="#c"/></clipPath><clipPath id="aC"><use xlink:href="#d"/></clipPath><clipPath id="aD"><path d="M36 3h10v56.679688H36Zm0 0"/></clipPath><clipPath id="aE"><use xlink:href="#c"/></clipPath><clipPath id="aF"><use xlink:href="#d"/></clipPath><clipPath id="aG"><path d="M33 3h9v56.679688h-9Zm0 0"/></clipPath><clipPath id="aH"><use xlink:href="#c"/></clipPath><clipPath id="aI"><use xlink:href="#d"/></clipPath><clipPath id="aJ"><path d="M29 4h10v55.679688H29Zm0 0"/></clipPath><clipPath id="aK"><use xlink:href="#c"/></clipPath><clipPath id="aL"><use xlink:href="#d"/></clipPath><clipPath id="aM"><path d="M26 4h9v55.679688h-9Zm0 0"/></clipPath><clipPath id="aN"><use xlink:href="#c"/></clipPath><clipPath id="aO"><use xlink:href="#d"/></clipPath><clipPath id="aP"><path d="M22 5h10v54.679688H22Zm0 0"/></clipPath><clipPath id="aQ"><use xlink:href="#c"/></clipPath><clipPath id="aR"><use xlink:href="#d"/></clipPath><clipPath id="aS"><path d="M19 5h9v54.679688h-9Zm0 0"/></clipPath><clipPath id="aT"><use xlink:href="#c"/></clipPath><clipPath id="aU"><use xlink:href="#d"/></clipPath><clipPath id="aV"><path d="M15 5h9v54.679688h-9Zm0 0"/></clipPath><clipPath id="aW"><use xlink:href="#c"/></clipPath><clipPath id="aX"><use xlink:href="#d"/></clipPath><clipPath id="aY"><path d="M12 6h9v53.679688h-9Zm0 0"/></clipPath><clipPath id="aZ"><use xlink:href="#c"/></clipPath><clipPath id="ba"><use xlink:href="#d"/></clipPath><clipPath id="bb"><path d="M8 6h9v53.679688H8Zm0 0"/></clipPath><clipPath id="bc"><use xlink:href="#c"/></clipPath><clipPath id="bd"><use xlink:href="#d"/></clipPath><clipPath id="be"><path d="M4 7h10v52.679688H4Zm0 0"/></clipPath><clipPath id="bf"><use xlink:href="#c"/></clipPath><clipPath id="bg"><use xlink:href="#d"/></clipPath><clipPath id="bh"><path d="M1 7h9v52.679688H1Zm0 0"/></clipPath><clipPath id="bi"><use xlink:href="#c"/></clipPath><clipPath id="bj"><use xlink:href="#d"/></clipPath><clipPath id="ak"><path d="M0 0h67v60H0z"/></clipPath><clipPath id="bk"><path d="M138 154h37v37h-37Zm0 0"/></clipPath><clipPath id="bl"><use xlink:href="#a"/></clipPath><clipPath id="bm"><use xlink:href="#b"/></clipPath><clipPath id="bp"><path d="M2 2h33v33H2Zm0 0"/></clipPath><clipPath id="bq"><path d="m-19.992188-73.75 125.183594-14.308594 13.625 119.226563L-6.367188 45.472656Zm0 0"/></clipPath><clipPath id="br"><path d="m104.816406-92.691406-125.1875 14.308594L-3.847656 66.175781l125.183594-14.308593Zm0 0"/></clipPath><clipPath id="bo"><path d="M0 0h37v37H0z"/></clipPath><clipPath id="bs"><path d="M209 131h13v7h-13Zm0 0"/></clipPath><clipPath id="bt"><use xlink:href="#e"/></clipPath><clipPath id="bu"><use xlink:href="#f"/></clipPath><clipPath id="bv"><path d="M169 136h8v7h-8Zm0 0"/></clipPath><clipPath id="bw"><use xlink:href="#e"/></clipPath><clipPath id="bx"><use xlink:href="#f"/></clipPath><clipPath id="by"><path d="M144 137h13v7h-13Zm0 0"/></clipPath><clipPath id="bz"><use xlink:href="#e"/></clipPath><clipPath id="bA"><use xlink:href="#f"/></clipPath><clipPath id="bB"><path d="M125 130h130v72H125Zm0 0"/></clipPath><clipPath id="bC"><use xlink:href="#e"/></clipPath><clipPath id="bD"><use xlink:href="#f"/></clipPath><clipPath id="bE"><path d="M185 141h68v61h-68Zm0 0"/></clipPath><clipPath id="bF"><use xlink:href="#e"/></clipPath><clipPath id="bG"><use xlink:href="#f"/></clipPath><clipPath id="bJ"><path d="M.0390625 1H67v59.121094H.0390625Zm0 0"/></clipPath><clipPath id="bK"><path d="M-66.992188-56.929688 55.957031-70.980469 69.328125 46.007812-53.621094 60.058594Zm0 0"/></clipPath><clipPath id="bL"><path d="M55.3125-77.429688-67.636719-63.378906l16.265625 142.324218L71.578125 64.894531Zm0 0"/></clipPath><clipPath id="bI"><path d="M0 0h68v61H0z"/></clipPath><clipPath id="bM"><path d="M126 149h61v49h-61Zm0 0"/></clipPath><clipPath id="bN"><use xlink:href="#e"/></clipPath><clipPath id="bO"><use xlink:href="#f"/></clipPath><clipPath id="bP"><path d="M125 149h61v48h-61Zm0 0"/></clipPath><clipPath id="bQ"><use xlink:href="#e"/></clipPath><clipPath id="bR"><use xlink:href="#f"/></clipPath><clipPath id="bU"><path d="M1 1h60v46.800781H1Zm0 0"/></clipPath><clipPath id="bV"><path d="m-6.992188-64.929688 122.949219-14.050781 13.371094 116.988281L6.378906 52.058594Zm0 0"/></clipPath><clipPath id="bW"><path d="M115.3125-85.429688-7.636719-71.378906 8.628906 70.945312l122.949219-14.050781Zm0 0"/></clipPath><clipPath id="bT"><path d="M0 0h61v48H0z"/></clipPath><clipPath id="bX"><path d="M205 139h8v4h-8Zm0 0"/></clipPath><clipPath id="bY"><use xlink:href="#e"/></clipPath><clipPath id="bZ"><use xlink:href="#f"/></clipPath><clipPath id="ca"><path d="M197 140h8v4h-8Zm0 0"/></clipPath><clipPath id="cb"><use xlink:href="#e"/></clipPath><clipPath id="cc"><use xlink:href="#f"/></clipPath><clipPath id="cd"><path d="M189 141h8v4h-8Zm0 0"/></clipPath><clipPath id="ce"><use xlink:href="#e"/></clipPath><clipPath id="cf"><use xlink:href="#f"/></clipPath><clipPath id="cg"><path d="M182 142h8v4h-8Zm0 0"/></clipPath><clipPath id="ch"><use xlink:href="#e"/></clipPath><clipPath id="ci"><use xlink:href="#f"/></clipPath><clipPath id="cj"><path d="M148 76h10v63h-10Zm0 0"/></clipPath><clipPath id="ck"><use xlink:href="#e"/></clipPath><clipPath id="cl"><use xlink:href="#f"/></clipPath><clipPath id="cm"><path d="M186 141h66v61h-66Zm0 0"/></clipPath><clipPath id="cn"><use xlink:href="#e"/></clipPath><clipPath id="co"><use xlink:href="#f"/></clipPath><clipPath id="cr"><path d="M56 1h9v59.121094h-9Zm0 0"/></clipPath><clipPath id="cs"><use xlink:href="#g"/></clipPath><clipPath id="ct"><use xlink:href="#h"/></clipPath><clipPath id="cu"><path d="M52 1h10v59.121094H52Zm0 0"/></clipPath><clipPath id="cv"><use xlink:href="#g"/></clipPath><clipPath id="cw"><use xlink:href="#h"/></clipPath><clipPath id="cx"><path d="M49 1h9v59.121094h-9Zm0 0"/></clipPath><clipPath id="cy"><use xlink:href="#g"/></clipPath><clipPath id="cz"><use xlink:href="#h"/></clipPath><clipPath id="cA"><path d="M45 2h10v58.121094H45Zm0 0"/></clipPath><clipPath id="cB"><use xlink:href="#g"/></clipPath><clipPath id="cC"><use xlink:href="#h"/></clipPath><clipPath id="cD"><path d="M42 2h9v58.121094h-9Zm0 0"/></clipPath><clipPath id="cE"><use xlink:href="#g"/></clipPath><clipPath id="cF"><use xlink:href="#h"/></clipPath><clipPath id="cG"><path d="M39 2h9v58.121094h-9Zm0 0"/></clipPath><clipPath id="cH"><use xlink:href="#g"/></clipPath><clipPath id="cI"><use xlink:href="#h"/></clipPath><clipPath id="cJ"><path d="M35 3h9v57.121094h-9Zm0 0"/></clipPath><clipPath id="cK"><use xlink:href="#g"/></clipPath><clipPath id="cL"><use xlink:href="#h"/></clipPath><clipPath id="cM"><path d="M32 3h9v57.121094h-9Zm0 0"/></clipPath><clipPath id="cN"><use xlink:href="#g"/></clipPath><clipPath id="cO"><use xlink:href="#h"/></clipPath><clipPath id="cP"><path d="M28 4h9v56.121094h-9Zm0 0"/></clipPath><clipPath id="cQ"><use xlink:href="#g"/></clipPath><clipPath id="cR"><use xlink:href="#h"/></clipPath><clipPath id="cS"><path d="M25 4h9v56.121094h-9Zm0 0"/></clipPath><clipPath id="cT"><use xlink:href="#g"/></clipPath><clipPath id="cU"><use xlink:href="#h"/></clipPath><clipPath id="cV"><path d="M21 4h10v56.121094H21Zm0 0"/></clipPath><clipPath id="cW"><use xlink:href="#g"/></clipPath><clipPath id="cX"><use xlink:href="#h"/></clipPath><clipPath id="cY"><path d="M18 5h9v55.121094h-9Zm0 0"/></clipPath><clipPath id="cZ"><use xlink:href="#g"/></clipPath><clipPath id="da"><use xlink:href="#h"/></clipPath><clipPath id="db"><path d="M14 5h10v55.121094H14Zm0 0"/></clipPath><clipPath id="dc"><use xlink:href="#g"/></clipPath><clipPath id="dd"><use xlink:href="#h"/></clipPath><clipPath id="de"><path d="M11 6h9v54.121094h-9Zm0 0"/></clipPath><clipPath id="df"><use xlink:href="#g"/></clipPath><clipPath id="dg"><use xlink:href="#h"/></clipPath><clipPath id="dh"><path d="M7 6h10v54.121094H7Zm0 0"/></clipPath><clipPath id="di"><use xlink:href="#g"/></clipPath><clipPath id="dj"><use xlink:href="#h"/></clipPath><clipPath id="dk"><path d="M4 6h9v54.121094H4Zm0 0"/></clipPath><clipPath id="dl"><use xlink:href="#g"/></clipPath><clipPath id="dm"><use xlink:href="#h"/></clipPath><clipPath id="dn"><path d="M.480469 7H10v53.121094H.480469Zm0 0"/></clipPath><clipPath id="do"><use xlink:href="#g"/></clipPath><clipPath id="dp"><use xlink:href="#h"/></clipPath><clipPath id="cq"><path d="M0 0h66v61H0z"/></clipPath><clipPath id="dq"><path d="M138 155h36v36h-36Zm0 0"/></clipPath><clipPath id="dr"><use xlink:href="#e"/></clipPath><clipPath id="ds"><use xlink:href="#f"/></clipPath><clipPath id="dv"><path d="M2 2h32v32H2Zm0 0"/></clipPath><clipPath id="dw"><path d="m-19.992188-70.929688 122.949219-14.050781 13.371094 116.988281L-6.621094 46.058594Zm0 0"/></clipPath><clipPath id="dx"><path d="M102.3125-91.429688-20.636719-77.378906-4.371094 64.945312l122.949219-14.050781Zm0 0"/></clipPath><clipPath id="du"><path d="M0 0h36v36H0z"/></clipPath><clipPath id="dy"><path d="M23.296875 174.542969h328.433594v66.621093H23.296875Zm0 0"/></clipPath><clipPath id="dz"><path d="M187.5 174.542969c-90.6875 0-164.203125 14.914062-164.203125 33.308593 0 18.398438 73.515625 33.3125 164.203125 33.3125s164.203125-14.914062 164.203125-33.3125c0-18.394531-73.515625-33.308593-164.203125-33.308593Zm0 0"/></clipPath><clipPath id="dA"><path d="M54.316406 177.644531h266.25v45.414063h-266.25Zm0 0"/></clipPath><clipPath id="dB"><path d="M96 177.644531h183V180H96Zm0 0"/></clipPath><clipPath id="dC"><path d="M96 177.644531h183v2.0625H96Zm0 0"/></clipPath><clipPath id="dD"><path d="M156.167969 137.957031c-7.296875 3.140625-13.550781 7.140625-12.773438 14.667969-8.539062 2.914062-23.746093 6.5-22.25 18.511719.164063 1.695312 1.699219 4.484375 2.035157 5.898437-8.929688.660156-17.398438 1.460938-25.242188 2.421875-1.015625-5.40625-1.550781-10.980469-1.550781-16.6875 0-26.957031 11.820312-51.253906 30.542969-67.960937l.019531.023437c-.101563.179688-.097657.421875.035156.625l15.875 22.921875c-.132813.207032-.152344.441406-.039063.605469m17.660157 17.585937c-.511719.09375-.984375.203126-1.429688.324219l-13.796875-19.605469c-.117187-.160156-.351562-.230468-.578125-.171874L128.8125 94.1875c-.144531-.191406-.363281-.289062-.574219-.257812l-.117187-.167969c15.160156-13.066407 34.644531-21.242188 55.972656-22.035157l-1.242188 3.515626c-.203124.023437-.402343.171874-.488281.394531l-10.714843 30.417969c-.246094 0-.449219.125-.515626.316406Zm53.609375-33.871093c-.082032 0-2.003906.382812-2.089844.382812-.164062 0-.890625-.210937-.988281-.058593-.226563.339843-.40625 1.214843-.648438 1.464843-.160156.152344.082031.152344-.40625.152344-.476562 0-1.160156.15625-1.527343 0-.566407-.230469-1.621094-.902344-3.078126-.726563-.246093.027344-.480468-.164062-.648437-.25-.070313 0-.480469-.234374-.480469-.398437 0-1.160156 2.863282-1.457031 2.863282-1.972656-.726563 0-3.027344-.546875-3.917969-.546875-.71875 0-1.289063 0-1.773438-.234375-.734375-.324219-2.183593-1.054688-3.152343-1.054688-1.222657 0-3.238282.242188-4.207032-.402343 0-.648438 2.828125-1.300782 3.476563-1.382813 2.507812-.324219 5.820312-1.707031 8.246093-1.707031 1.074219 0 2.457032.222656 3.339844.546875 1 .371093.941406.878906 1.703125.636719 2.082031-.671876 2.949219-.332032 2.777344.769531 1.664063.210937 4.039063.492187 5.234375.738281 3.636719.746094 2.792969 3.335938 4.847656 5.398438.324219.332031-2.628906-.304688-2.945312-.304688-1.054688 0-2.914063.164062-3.71875-.238281-.25-.082031-2.589844-.8125-2.90625-.8125Zm-26.597656-31.039063c50.191406 0 91.117187 40.925782 91.117187 91.109375 0 5.4375-.488281 10.746094-1.40625 15.914063-6.386719-.664063-13.253906-1.246094-20.457031-1.753906-.769532-7.410157-1.707032-15.882813-2.304688-22.269532-.445312-4.753906-4.515625-10.269531-9.222656-11.074218-18.929688-3.222657-42.523438-3.335938-61.054688-1.132813-.296874.035156-.601562.0625-.894531.101563-.070312-.054688-.132812-.078126-.191406-.078126-3.539063-5.34375-12.703125-6.726562-19.308594-6.300781l10.164063-28.824219c.070312-.1875-.019532-.398437-.199219-.5625L184.460938 76.375c.078124-.226562.027343-.464844-.121094-.613281l1.4375-4.082031c.574218-.011719 1.144531-.019532 1.714844-.019532Zm0 0"/></clipPath><clipPath id="dE"><path d="M119.371094 232.421875h156.578125v36.492187H119.371094Zm0 0"/></clipPath><clipPath id="dF"><path d="M191.085938 83.734375H218V103h-26.914062Zm0 0"/></clipPath><clipPath id="dG"><path d="M215 94h16.585938v7H215Zm0 0"/></clipPath><clipPath id="dH"><path d="M204 100h12v6.234375h-12Zm0 0"/></clipPath><clipPath id="dI"><path d="M144 62h39v85h-39Zm0 0"/></clipPath><clipPath id="dJ"><path d="m107.214844 127.617188 50.441406-66.226563 24.464844 18.632813L131.675781 146.25Zm0 0"/></clipPath><clipPath id="dK"><path d="m93.875 145.132812 63.621094-83.53125 94.269531 71.804688-63.625 83.527344Zm0 0"/></clipPath><mask id="B"><g filter="url(#i)"><use xlink:href="#j" fill-opacity=".3"/></g></mask><mask id="M"><g filter="url(#i)"><use xlink:href="#j" fill-opacity=".5"/></g></mask><mask id="aj"><g filter="url(#i)"><use xlink:href="#j" fill-opacity=".3"/></g></mask><mask id="bn"><g filter="url(#i)"><use xlink:href="#j" fill-opacity=".5"/></g></mask><mask id="bH"><g filter="url(#i)"><use xlink:href="#j" fill-opacity=".3"/></g></mask><mask id="bS"><g filter="url(#i)"><use xlink:href="#j" fill-opacity=".5"/></g></mask><mask id="cp"><g filter="url(#i)"><use xlink:href="#j" fill-opacity=".3"/></g></mask><mask id="dt"><g filter="url(#i)"><use xlink:href="#j" fill-opacity=".5"/></g></mask><filter id="i" width="100%" height="100%" x="0%" y="0%"><feColorMatrix color-interpolation-filters="sRGB" values="0 0 0 0 1 0 0 0 0 1 0 0 0 0 1 0 0 0 1 0"/></filter></defs><g clip-path="url(#k)"><g clip-path="url(#l)"><path fill="#f1ac00" d="M92.875 70.757812h196.511719V261.3125H92.875Zm0 0"/></g></g><g clip-path="url(#m)"><g clip-path="url(#n)"><g clip-path="url(#o)"><path fill="#fff" d="M211.339844 134.25c.027344.222656.089844.441406.195312.648438.101563.210937.242188.410156.417969.597656.175781.1875.386719.363281.628906.523437.242188.15625.515625.300781.816407.425781.300781.125.621093.230469.96875.316407.347656.085937.710937.148437 1.089843.191406.378907.042969.765625.066406 1.164063.0625.394531 0 .792968-.023437 1.191406-.070313.402344-.046874.792969-.113281 1.179688-.199218.390624-.089844.761718-.195313 1.121093-.324219.359375-.128906.699219-.273437 1.015625-.433594.320313-.160156.609375-.335937.875-.527343.265625-.1875.496094-.390626.699219-.601563.199219-.207031.363281-.425781.496094-.648437.128906-.222657.21875-.449219.273437-.675782.050782-.226562.066406-.453125.039063-.675781-.023438-.222656-.089844-.4375-.191407-.648437-.101562-.207032-.242187-.40625-.417968-.59375-.179688-.191407-.386719-.363282-.632813-.523438-.242187-.160156-.511719-.300781-.8125-.425781-.300781-.125-.625-.230469-.972656-.316407-.34375-.085937-.707031-.152343-1.085937-.195312-.378907-.042969-.769532-.0625-1.164063-.0625-.398437.003906-.796875.027344-1.195313.070312-.398437.046876-.792968.113282-1.179687.203126-.386719.085937-.761719.195312-1.121094.324218-.359375.125-.695312.269532-1.015625.433594-.316406.160156-.609375.335938-.875.523438-.261718.191406-.496094.390624-.695312.601562-.203125.210938-.367188.425781-.496094.652344-.128906.222656-.222656.445312-.273438.675781-.054687.226563-.066406.449219-.042968.671875Zm0 0"/></g></g></g><g clip-path="url(#p)"><g clip-path="url(#q)"><g clip-path="url(#r)"><path fill="#fff" d="M170.40625 138.929688c.054688.449218.191406.871093.417969 1.265624.230469.394532.527343.734376.894531 1.011719.371094.28125.78125.480469 1.234375.605469.453125.121094.917969.15625 1.386719.101562.46875-.054687.910156-.191406 1.328125-.414062.414062-.21875.769531-.507812 1.0625-.863281.296875-.355469.511719-.753907.644531-1.1875.132812-.4375.171875-.878907.121094-1.328125-.050782-.453125-.191406-.875-.417969-1.269532-.226563-.394531-.527344-.730468-.894531-1.011718-.367188-.277344-.78125-.480469-1.234375-.601563-.453125-.125-.914063-.15625-1.382813-.105469-.472656.054688-.914062.191407-1.328125.414063-.414062.222656-.769531.511719-1.066406.867187-.296875.355469-.511719.75-.640625 1.1875-.132812.4375-.175781.878907-.125 1.328126Zm0 0"/></g></g></g><g clip-path="url(#s)"><g clip-path="url(#t)"><g clip-path="url(#u)"><path fill="#fff" d="M145.699219 140.535156c.027343.214844.089843.425782.1875.628906.097656.203126.234375.398438.40625.582032.167969.183594.371093.351562.605469.507812.234374.15625.496093.292969.785156.417969.289062.121094.601562.222656.9375.308594.332031.082031.683594.144531 1.046875.1875.367187.042969.738281.0625 1.121093.0625.382813 0 .765626-.023438 1.152344-.066407.382813-.042968.761719-.109374 1.136719-.195312.371094-.085938.730469-.191406 1.078125-.3125.34375-.125.671875-.265625.976562-.421875.308594-.15625.589844-.328125.84375-.511719.253907-.183594.476563-.378906.671876-.582031.191406-.207031.351562-.414063.476562-.632813.125-.21875.210938-.4375.261719-.65625.050781-.222656.0625-.441406.039062-.65625-.023437-.21875-.085937-.429687-.1875-.632812-.097656-.203125-.234375-.394531-.402343-.578125-.171876-.183594-.371094-.355469-.605469-.511719-.238281-.152344-.5-.292968-.789063-.414062-.289062-.121094-.601562-.226563-.933594-.308594-.335937-.085938-.683593-.148438-1.050781-.191406-.363281-.039063-.738281-.0625-1.121093-.0625-.382813.003906-.765626.023437-1.148438.070312-.386719.042969-.765625.109375-1.136719.191406-.375.085938-.734375.191407-1.078125.316407-.347656.121093-.671875.261719-.980468.417969-.304688.160156-.585938.328124-.839844.511718-.253906.1875-.480469.378906-.671875.585938-.195313.203125-.351563.414062-.476563.632812-.125.214844-.214844.433594-.265625.65625-.050781.21875-.0625.4375-.039062.65625Zm0 0"/></g></g></g><g clip-path="url(#v)"><g clip-path="url(#w)"><g clip-path="url(#x)"><path fill="#fff" d="m125.882812 149.371094 7.359376 64.390625c.410156 3.585937 3.648437 6.15625 7.230468 5.746093l112.367188-12.839843c3.585937-.410157 6.15625-3.648438 5.746094-7.230469l-7.359376-64.390625c-.40625-3.585937-3.644531-6.15625-7.226562-5.746094l-112.371094 12.84375c-3.585937.40625-6.152344 3.644531-5.746094 7.226563Zm0 0"/></g></g></g><g clip-path="url(#y)"><g clip-path="url(#z)"><g clip-path="url(#A)" mask="url(#B)"><g clip-path="url(#C)" transform="translate(186 140)"><g clip-path="url(#D)"><g clip-path="url(#E)"><g clip-path="url(#F)"><path fill="#fff" d="m1.375 11.460938 6.09375 53.308593c.132812 1.164063.8125 2.136719 1.753906 2.699219.488282.28125 1.042969.457031 1.636719.492188.195313.007812.398437 0 .597656-.023438l53.621094-6.125c.261719-.03125.523437-.09375.761719-.175781.574218-.195313 1.074218-.527344 1.472656-.953125.6875-.746094 1.0625-1.777344.9375-2.863282L62.15625 4.515625c-.121094-1.082031-.722656-2.003906-1.558594-2.578125-.484375-.324219-1.046875-.535156-1.648437-.597656-.253907-.027344-.519531-.027344-.78125.003906L4.550781 7.472656c-.199219.023438-.398437.0625-.585937.113282-.570313.167968-1.074219.460937-1.484375.847656-.792969.757812-1.238281 1.859375-1.105469 3.027344Zm0 0"/></g></g></g></g></g></g></g><g clip-path="url(#G)"><g clip-path="url(#H)"><g clip-path="url(#I)"><path fill="#fff" d="M126.503906 154.792969 131.441406 198l51.980469-5.941406c2.789063-.320313 4.789063-2.835938 4.472656-5.628906l-3.785156-33.105469c-.320313-2.789063-2.835937-4.792969-5.628906-4.472657Zm0 0"/></g></g></g><g clip-path="url(#J)"><g clip-path="url(#K)"><g clip-path="url(#L)" mask="url(#M)"><g clip-path="url(#N)" transform="translate(126 149)"><g clip-path="url(#O)"><g clip-path="url(#P)"><g clip-path="url(#Q)"><path fill="#fff" d="m.625 6.859375 4.695312 41.070313 50.730469-5.800782c2.789063-.316406 4.792969-2.835937 4.472657-5.625L56.984375 5.539062C56.667969 2.75 54.148438.746094 51.355469 1.066406L.625 6.863281Zm0 0"/></g></g></g></g></g></g></g><g clip-path="url(#R)"><g clip-path="url(#S)"><g clip-path="url(#T)"><path fill="#fff" d="m208.097656 142.214844 5.300782-.605469c.445312-.050781.761718-.457031.710937-.898437l-.160156-1.417969c-.054688-.445313-.457031-.765625-.898438-.714844l-5.300781.605469c-.445312.054687-.761719.457031-.710938.898437l.160157 1.417969c.050781.445312.453125.765625.898437.714844Zm0 0"/></g></g></g><g clip-path="url(#U)"><g clip-path="url(#V)"><g clip-path="url(#W)"><path fill="#fff" d="m200.296875 143.105469 5.300781-.605469c.445313-.050781.761719-.453125.710938-.898438l-.164063-1.417968c-.050781-.445313-.453125-.761719-.894531-.710938l-5.300781.605469c-.445313.050781-.761719.453125-.710938.894531l.160157 1.421875c.046874.441407.453124.761719.898437.710938Zm0 0"/></g></g></g><g clip-path="url(#X)"><g clip-path="url(#Y)"><g clip-path="url(#Z)"><path fill="#fff" d="m192.492188 143.996094 5.300781-.605469c.445312-.050781.761719-.453125.710937-.894531l-.164062-1.421875c-.050782-.445313-.453125-.761719-.894532-.710938l-5.300781.605469c-.445312.050781-.761719.453125-.710937.898438l.160156 1.417968c.046875.441406.453125.761719.898438.710938Zm0 0"/></g></g></g><g clip-path="url(#aa)"><g clip-path="url(#ab)"><g clip-path="url(#ac)"><path fill="#fff" d="m184.6875 144.890625 5.300781-.605469c.445313-.050781.761719-.457031.710938-.898437l-.164063-1.417969c-.050781-.445312-.453125-.765625-.894531-.714844l-5.300781.605469c-.445313.050781-.761719.457031-.710938.898437l.160156 1.417969c.050782.445313.453126.765625.898438.714844Zm0 0"/></g></g></g><g clip-path="url(#ad)"><g clip-path="url(#ae)"><g clip-path="url(#af)"><path fill="#fff" d="m149.773438 137.855469 7.214843-63.75 1.46875.144531-4.96875 63.871094Zm0 0"/></g></g></g><g clip-path="url(#ag)"><g clip-path="url(#ah)"><g clip-path="url(#ai)" mask="url(#aj)"><g clip-path="url(#ak)" transform="translate(187 140)"><g clip-path="url(#al)"><g clip-path="url(#am)"><g clip-path="url(#an)"><path fill="#fff" d="m57.949219 1.339844 6.890625 60.296875c.574218-.195313 1.074218-.527344 1.472656-.953125L59.597656 1.9375c-.484375-.328125-1.046875-.535156-1.648437-.597656Zm0 0"/></g></g></g><g clip-path="url(#ao)"><g clip-path="url(#ap)"><g clip-path="url(#aq)"><path fill="#fff" d="m55.96875 1.480469-1.5625.179687L61.316406 62.125l1.5625-.175781Zm0 0"/></g></g></g><g clip-path="url(#ar)"><g clip-path="url(#as)"><g clip-path="url(#at)"><path fill="#fff" d="m52.429688 1.886719-1.558594.175781 6.910156 60.46875 1.558594-.179688Zm0 0"/></g></g></g><g clip-path="url(#au)"><g clip-path="url(#av)"><g clip-path="url(#aw)"><path fill="#fff" d="m48.894531 2.289062-1.5625.179688 6.910157 60.464844 1.5625-.175782Zm0 0"/></g></g></g><g clip-path="url(#ax)"><g clip-path="url(#ay)"><g clip-path="url(#az)"><path fill="#fff" d="m45.363281 2.695312-1.5625.175782 6.910157 60.46875 1.5625-.179688Zm0 0"/></g></g></g><g clip-path="url(#aA)"><g clip-path="url(#aB)"><g clip-path="url(#aC)"><path fill="#fff" d="m41.832031 3.097656-1.5625.179688 6.910157 60.464844 1.5625-.179688Zm0 0"/></g></g></g><g clip-path="url(#aD)"><g clip-path="url(#aE)"><g clip-path="url(#aF)"><path fill="#fff" d="m38.296875 3.5-1.5625.179688 6.910156 60.464843 1.5625-.175781Zm0 0"/></g></g></g><g clip-path="url(#aG)"><g clip-path="url(#aH)"><g clip-path="url(#aI)"><path fill="#fff" d="m34.761719 3.90625-1.5625.175781 6.914062 60.46875 1.558594-.179687Zm0 0"/></g></g></g><g clip-path="url(#aJ)"><g clip-path="url(#aK)"><g clip-path="url(#aL)"><path fill="#fff" d="m31.226562 4.308594-1.5625.179687 6.910157 60.464844 1.5625-.175781Zm0 0"/></g></g></g><g clip-path="url(#aM)"><g clip-path="url(#aN)"><g clip-path="url(#aO)"><path fill="#fff" d="m27.695312 4.710938-1.558593.179687 6.910156 60.46875 1.558594-.179687Zm0 0"/></g></g></g><g clip-path="url(#aP)"><g clip-path="url(#aQ)"><g clip-path="url(#aR)"><path fill="#fff" d="m24.160156 5.117188-1.5625.179687 6.910156 60.464844 1.5625-.179688Zm0 0"/></g></g></g><g clip-path="url(#aS)"><g clip-path="url(#aT)"><g clip-path="url(#aU)"><path fill="#fff" d="m20.625 5.519531-1.558594.179688 6.910156 60.464843 1.5625-.175781Zm0 0"/></g></g></g><g clip-path="url(#aV)"><g clip-path="url(#aW)"><g clip-path="url(#aX)"><path fill="#fff" d="m17.089844 5.925781-1.5625.175781 6.910156 60.46875L24 66.390625Zm0 0"/></g></g></g><g clip-path="url(#aY)"><g clip-path="url(#aZ)"><g clip-path="url(#ba)"><path fill="#fff" d="M13.5625 6.328125 12 6.507812l6.910156 60.464844 1.5625-.179687Zm0 0"/></g></g></g><g clip-path="url(#bb)"><g clip-path="url(#bc)"><g clip-path="url(#bd)"><path fill="#fff" d="m10.023438 6.730469-1.5625.179687L15.375 67.378906l1.558594-.179687Zm0 0"/></g></g></g><g clip-path="url(#be)"><g clip-path="url(#bf)"><g clip-path="url(#bg)"><path fill="#fff" d="m6.492188 7.136719-1.5625.179687 6.910156 60.464844 1.5625-.179688Zm0 0"/></g></g></g><g clip-path="url(#bh)"><g clip-path="url(#bi)"><g clip-path="url(#bj)"><path fill="#fff" d="m1.480469 8.433594 6.746093 59.03125c.488282.28125 1.042969.457031 1.636719.492187L2.964844 7.585938c-.570313.167968-1.074219.460937-1.484375.847656Zm0 0"/></g></g></g></g></g></g></g><g clip-path="url(#bk)"><g clip-path="url(#bl)"><g clip-path="url(#bm)"><path fill="#fff" d="M139.027344 174.679688c.066406.582031.164062 1.15625.285156 1.730468.125.570313.273438 1.136719.453125 1.691406.179687.558594.382813 1.105469.617187 1.644532.230469.535156.488282 1.058594.773438 1.570312.285156.511719.59375 1.007813.925781 1.492188.332031.480468.6875.945312 1.066407 1.390625.375.445312.777343.871093 1.195312 1.28125.421875.40625.859375.792969 1.316406 1.15625.460938.363281.933594.703125 1.425782 1.023437.492187.316406.996093.609375 1.519531.875.519531.269532 1.050781.511719 1.59375.726563.542969.214843 1.097656.402343 1.660156.5625.5625.164062 1.132813.296875 1.707031.402343.574219.101563 1.15625.179688 1.738282.226563.582031.050781 1.167968.070313 1.753906.058594.582031-.007813 1.167968-.046875 1.746094-.113281.582031-.066407 1.160156-.160157 1.730468-.28125.574219-.125 1.136719-.273438 1.695313-.453126.558593-.179687 1.105469-.382812 1.640625-.617187.539062-.230469 1.0625-.488281 1.574218-.773437.511719-.285157 1.007813-.59375 1.488282-.925782.480468-.332031.945312-.6875 1.390625-1.066406.449219-.378906.875-.777344 1.28125-1.195312.40625-.421876.792969-.859376 1.15625-1.320313.363281-.457031.707031-.929687 1.023437-1.421875.316406-.492188.609375-1 .878906-1.519531.265626-.519531.507813-1.050781.722657-1.59375.214843-.546875.402343-1.097657.566406-1.660157.160156-.5625.292969-1.132812.398437-1.707031.105469-.578125.183594-1.15625.230469-1.738281s.066407-1.167969.058594-1.753906c-.007813-.582032-.046875-1.167969-.113281-1.75-.066406-.578125-.160156-1.15625-.285156-1.726563-.121094-.574219-.273438-1.136719-.453126-1.695312-.175781-.558594-.382812-1.105469-.617187-1.640625-.230469-.539063-.488281-1.0625-.773437-1.574219-.28125-.511719-.589844-1.007813-.921876-1.488281-.335937-.480469-.691406-.945313-1.066406-1.390625-.378906-.449219-.777344-.875-1.199218-1.28125-.421876-.40625-.859376-.792969-1.316407-1.15625-.457031-.367188-.933593-.707031-1.425781-1.023438-.492188-.316406-.996094-.609375-1.515625-.878906-.519531-.265625-1.054687-.507813-1.597656-.722656-.542969-.214844-1.097657-.40625-1.660157-.566407-.5625-.160156-1.132812-.292968-1.707031-.398437-.574219-.105469-1.152343-.183594-1.738281-.230469-.582031-.046875-1.167969-.066406-1.75-.058594-.585938.007813-1.167969.046876-1.75.113282-.582031.066406-1.160156.160156-1.730469.285156-.570312.121094-1.136719.273438-1.695312.453125-.554688.175781-1.101563.382813-1.640625.613281-.535156.234375-1.058594.492188-1.570313.777344-.511719.28125-1.011719.589844-1.492187.921875-.480469.332031-.945313.6875-1.390625 1.066406-.445313.378907-.875.777344-1.28125 1.199219-.40625.417969-.792969.859375-1.15625 1.316406-.363281.457032-.703125.933594-1.023438 1.425782-.316406.488281-.609375.996093-.875 1.515624-.269531.519532-.511719 1.054688-.726562 1.597657-.214844.542969-.402344 1.097656-.5625 1.660156-.164063.5625-.296875 1.128906-.402344 1.707031-.105469.574219-.179687 1.152344-.230469 1.738282-.046875.582031-.066406 1.164062-.058594 1.75.011719.585937.046876 1.167968.113282 1.75Zm0 0"/><g mask="url(#bn)"><g clip-path="url(#bo)" transform="translate(138 154)"><g clip-path="url(#bp)"><g clip-path="url(#bq)"><g clip-path="url(#br)"><path fill="#fff" d="M3.082031 20.445312c.117188 1.03125.332031 2.039063.648438 3.027344.320312.988282.726562 1.9375 1.230469 2.84375.503906.90625 1.089843 1.753906 1.761718 2.546875s1.410156 1.511719 2.222656 2.15625c.8125.644531 1.679688 1.207031 2.601563 1.679688.925781.476562 1.882813.855469 2.882813 1.140625.996093.285156 2.011718.472656 3.046874.558594 1.03125.082031 2.066407.066406 3.09375-.050782 1.03125-.117187 2.042969-.335937 3.03125-.652344.984376-.316406 1.933594-.726562 2.839844-1.226562.90625-.503906 1.757813-1.09375 2.550782-1.761719.789062-.671875 1.507812-1.414062 2.152343-2.226562.648438-.808594 1.207031-1.675781 1.683594-2.601563C33.300781 24.957031 33.679688 24 33.964844 23c.289062-.996094.472656-2.011719.558594-3.046875.085937-1.03125.070312-2.066406-.046876-3.097656-.121093-1.027344-.335937-2.039063-.652343-3.027344-.316407-.988281-.726563-1.933594-1.230469-2.839844-.503906-.910156-1.089844-1.757812-1.761719-2.550781-.667969-.789062-1.410156-1.507812-2.222656-2.15625-.8125-.644531-1.679687-1.203125-2.601563-1.679688-.921874-.472656-1.882812-.855468-2.878906-1.140624-1-.285157-2.015625-.46875-3.046875-.554688-1.035156-.085938-2.066406-.070312-3.097656.046875s-2.039063.335937-3.027344.652344c-.988281.316406-1.9375.726562-2.84375 1.230469-.90625.503906-1.757812 1.089843-2.546875 1.761718-.792968.667969-1.511718 1.410156-2.15625 2.222656-.644531.8125-1.207031 1.679688-1.679687 2.601563-.476563.921875-.855469 1.882813-1.140625 2.878906-.285156 1-.472656 2.015625-.558594 3.046875-.085938 1.035156-.070312 2.066406.050781 3.097656Zm0 0"/></g></g></g></g></g></g></g></g><g clip-path="url(#bs)"><g clip-path="url(#bt)"><g clip-path="url(#bu)"><path fill="#a6a6a6" d="M209.414062 135.179688c.027344.21875.089844.429687.191407.632812.097656.207031.238281.402344.410156.585938.171875.1875.378906.355468.617187.511718.238282.160156.507813.296875.800782.421875.296875.121094.613281.226563.953125.308594.339843.085937.695312.148437 1.066406.191406.375.042969.753906.0625 1.144531.0625.390625-.003906.78125-.027343 1.171875-.070312.390625-.046875.777344-.109375 1.160157-.199219.378906-.085938.746093-.191406 1.097656-.316406.351562-.125.683594-.265625.996094-.425782.3125-.160156.601562-.332031.859374-.515624.257813-.1875.488282-.382813.683594-.589844.199219-.207032.359375-.421875.488282-.640625.125-.21875.214843-.4375.269531-.660157.050781-.226562.066406-.445312.039062-.664062-.023437-.21875-.085937-.429688-.1875-.636719-.101562-.207031-.238281-.398437-.414062-.585937-.171875-.183594-.378907-.355469-.617188-.511719-.238281-.15625-.503906-.296875-.800781-.417969-.292969-.125-.613281-.226562-.953125-.3125-.339844-.082031-.695313-.144531-1.066406-.1875-.371094-.042968-.753907-.0625-1.140625-.0625-.390625 0-.78125.023438-1.175782.070313-.390624.042969-.777343.109375-1.15625.195312-.378906.085938-.746093.191407-1.101562.316407-.351562.128906-.683594.269531-.996094.425781-.3125.160156-.597656.332031-.859375.519531-.257812.1875-.488281.382812-.683593.589844-.199219.207031-.359376.417968-.488282.636718-.125.21875-.214844.441407-.265625.664063-.054687.222656-.066406.445313-.042969.664063Zm0 0"/></g></g></g><g clip-path="url(#bv)"><g clip-path="url(#bw)"><g clip-path="url(#bx)"><path fill="#a6a6a6" d="M169.230469 139.769531c.050781.441407.1875.855469.410156 1.246094.222656.386719.515625.71875.878906.992187.363281.273438.765625.472657 1.210938.59375.445312.117188.898437.152344 1.359375.101563.460937-.054687.894531-.191406 1.304687-.40625.40625-.21875.753907-.503906 1.042969-.851563.292969-.347656.503906-.738281.632812-1.164062.128907-.429688.167969-.863281.117188-1.304688-.046875-.441406-.183594-.855468-.410156-1.246093-.222656-.386719-.515625-.71875-.875-.992188-.363282-.273437-.765625-.472656-1.210938-.59375-.445312-.117187-.898437-.152343-1.363281-.101562-.460937.054687-.894531.191406-1.300781.40625-.40625.21875-.753906.503906-1.046875.851562-.289063.347657-.5.738281-.628907 1.164063-.132812.429687-.171874.863281-.121093 1.304687Zm0 0"/></g></g></g><g clip-path="url(#by)"><g clip-path="url(#bz)"><g clip-path="url(#bA)"><path fill="#545454" d="M144.976562 141.347656c.023438.210938.085938.417969.183594.617188.097656.199218.230469.390625.394532.570312.167968.179688.367187.347656.597656.5.230468.152344.488281.289063.769531.410156.285156.117188.59375.21875.917969.300782.328125.082031.671875.144531 1.03125.1875.359375.039062.726562.058594 1.101562.058594.375 0 .75-.023438 1.128906-.066407.378907-.042969.75-.105469 1.117188-.1875.363281-.085937.71875-.1875 1.058594-.308593.339844-.121094.660156-.261719.960937-.414063.300781-.152344.574219-.320313.824219-.503906.25-.179688.46875-.371094.660156-.570313.191406-.203125.34375-.410156.46875-.621094.121094-.214843.207032-.429687.257813-.644531.050781-.21875.0625-.433593.039062-.644531-.027343-.214844-.085937-.417969-.183593-.621094-.097657-.199218-.230469-.390625-.398438-.570312-.167969-.179688-.363281-.34375-.59375-.496094-.230469-.15625-.488281-.289062-.773438-.410156-.285156-.121094-.589843-.222656-.917968-.304688-.328125-.082031-.671875-.144531-1.027344-.183594-.359375-.042968-.726562-.0625-1.101562-.0625-.375 0-.753907.023438-1.132813.066407-.375.042969-.746094.105469-1.113281.191406-.367188.082031-.71875.1875-1.058594.308594-.339844.121093-.660156.257812-.960938.410156-.300781.15625-.578124.324219-.828124.503906-.25.179688-.46875.371094-.65625.574219-.191407.199219-.347657.40625-.46875.621094-.125.210937-.210938.425781-.257813.644531-.050781.214844-.0625.429687-.039063.644531Zm0 0"/></g></g></g><g clip-path="url(#bB)"><g clip-path="url(#bC)"><g clip-path="url(#bD)"><path d="m125.523438 150.023438 7.222656 63.210937c.402344 3.519531 3.578125 6.042969 7.097656 5.640625l110.3125-12.605469c3.519531-.402343 6.042969-3.578125 5.640625-7.097656l-7.226563-63.214844c-.398437-3.515625-3.578124-6.042969-7.09375-5.640625l-110.316406 12.609375c-3.519531.402344-6.039062 3.578125-5.636718 7.097657Zm0 0"/></g></g></g><g clip-path="url(#bE)"><g clip-path="url(#bF)"><g clip-path="url(#bG)" mask="url(#bH)"><g clip-path="url(#bI)" transform="translate(185 141)"><g clip-path="url(#bJ)"><g clip-path="url(#bK)"><g clip-path="url(#bL)"><path fill="#a6a6a6" d="m.886719 11.074219 5.984375 52.328125c.128906 1.148437.796875 2.101562 1.71875 2.652344.480468.277343 1.027344.449218 1.609375.484374.191406.007813.390625 0 .585937-.023437L63.425781 60.5c.257813-.027344.511719-.089844.746094-.167969.566406-.191406 1.054687-.519531 1.445313-.9375.675781-.730469 1.042968-1.742187.921874-2.808593L60.558594 4.253906c-.121094-1.0625-.710938-1.964844-1.53125-2.53125C58.550781 1.40625 58 1.195312 57.40625 1.136719c-.246094-.027344-.507812-.023438-.765625.003906L4.003906 7.15625c-.195312.023438-.390625.0625-.574218.113281-.558594.164063-1.054688.453125-1.457032.832031-.777344.746094-1.214844 1.824219-1.085937 2.972657Zm0 0"/></g></g></g></g></g></g></g><g clip-path="url(#bM)"><g clip-path="url(#bN)"><g clip-path="url(#bO)"><path fill="#545454" d="m126.128906 155.34375 4.847656 42.417969 51.027344-5.832031c2.742188-.316407 4.707032-2.789063 4.394532-5.527344l-3.714844-32.5c-.316406-2.738282-2.785156-4.703125-5.527344-4.390625Zm0 0"/></g></g></g><g clip-path="url(#bP)"><g clip-path="url(#bQ)"><g clip-path="url(#bR)" mask="url(#bS)"><g clip-path="url(#bT)" transform="translate(125 149)"><g clip-path="url(#bU)"><g clip-path="url(#bV)"><g clip-path="url(#bW)"><path fill="#a6a6a6" d="m1.25 7.390625 4.609375 40.316406 49.800781-5.691406c2.738282-.3125 4.703125-2.785156 4.390625-5.523437L56.578125 6.09375c-.3125-2.738281-2.785156-4.703125-5.523437-4.390625L1.25 7.394531Zm0 0"/></g></g></g></g></g></g></g><g clip-path="url(#bX)"><g clip-path="url(#bY)"><g clip-path="url(#bZ)"><path fill="#545454" d="m206.230469 142.996094 5.203125-.597656c.4375-.046876.75-.445313.699218-.878907l-.160156-1.394531c-.050781-.4375-.445312-.746094-.878906-.699219l-5.203125.597657c-.4375.046874-.75.445312-.699219.878906l.160156 1.394531c.046876.433594.441407.746094.878907.699219Zm0 0"/></g></g></g><g clip-path="url(#ca)"><g clip-path="url(#cb)"><g clip-path="url(#cc)"><path fill="#545454" d="m198.574219 143.871094 5.199219-.59375c.441406-.050782.75-.449219.703124-.882813l-.160156-1.390625c-.050781-.441406-.445312-.75-.882812-.703125l-5.199219.597657c-.441406.050781-.75.445312-.699219.878906l.15625 1.394531c.046875.433594.441406.75.882813.699219Zm0 0"/></g></g></g><g clip-path="url(#cd)"><g clip-path="url(#ce)"><g clip-path="url(#cf)"><path fill="#545454" d="m190.910156 144.746094 5.203125-.59375c.4375-.050782.75-.445313.699219-.882813l-.160156-1.390625c-.050782-.4375-.445313-.75-.878906-.699218l-5.203126.59375c-.4375.050781-.75.445312-.699218.878906l.160156 1.394531c.046875.433594.441406.75.878906.699219Zm0 0"/></g></g></g><g clip-path="url(#cg)"><g clip-path="url(#ch)"><g clip-path="url(#ci)"><path fill="#545454" d="m183.25 145.621094 5.203125-.59375c.4375-.050782.746094-.445313.699219-.878906l-.160156-1.394532c-.050782-.4375-.445313-.75-.878907-.699218l-5.203125.59375c-.4375.050781-.75.445312-.699218.878906l.15625 1.394531c.050781.433594.445312.75.882812.699219Zm0 0"/></g></g></g><g clip-path="url(#cj)"><g clip-path="url(#ck)"><g clip-path="url(#cl)"><path fill="#545454" d="m148.976562 138.71875 7.082032-62.585938 1.441406.144532-4.878906 62.699218Zm0 0"/></g></g></g><g clip-path="url(#cm)"><g clip-path="url(#cn)"><g clip-path="url(#co)" mask="url(#cp)"><g clip-path="url(#cq)" transform="translate(186 141)"><g clip-path="url(#cr)"><g clip-path="url(#cs)"><g clip-path="url(#ct)"><path fill="#a6a6a6" d="m56.40625 1.136719 6.765625 59.195312c.566406-.191406 1.054687-.519531 1.445313-.9375L58.027344 1.722656C57.550781 1.402344 57 1.195312 56.40625 1.136719Zm0 0"/></g></g></g><g clip-path="url(#cu)"><g clip-path="url(#cv)"><g clip-path="url(#cw)"><path fill="#a6a6a6" d="m54.464844 1.277344-1.535156.171875L59.714844 60.8125l1.53125-.175781Zm0 0"/></g></g></g><g clip-path="url(#cx)"><g clip-path="url(#cy)"><g clip-path="url(#cz)"><path fill="#a6a6a6" d="m50.992188 1.671875-1.535157.175781 6.785157 59.359375 1.53125-.175781Zm0 0"/></g></g></g><g clip-path="url(#cA)"><g clip-path="url(#cB)"><g clip-path="url(#cC)"><path fill="#a6a6a6" d="m47.519531 2.070312-1.535156.175782 6.785156 59.359375 1.535157-.175781Zm0 0"/></g></g></g><g clip-path="url(#cD)"><g clip-path="url(#cE)"><g clip-path="url(#cF)"><path fill="#a6a6a6" d="m44.050781 2.464844-1.53125.175781L49.300781 62l1.535157-.175781Zm0 0"/></g></g></g><g clip-path="url(#cG)"><g clip-path="url(#cH)"><g clip-path="url(#cI)"><path fill="#a6a6a6" d="m40.585938 2.863281-1.53125.175781 6.78125 59.359376 1.535156-.175782Zm0 0"/></g></g></g><g clip-path="url(#cJ)"><g clip-path="url(#cK)"><g clip-path="url(#cL)"><path fill="#a6a6a6" d="m37.113281 3.257812-1.53125.175782 6.785157 59.359375 1.53125-.175781Zm0 0"/></g></g></g><g clip-path="url(#cM)"><g clip-path="url(#cN)"><g clip-path="url(#cO)"><path fill="#a6a6a6" d="m33.644531 3.65625-1.53125.175781 6.785157 59.359375 1.53125-.175781Zm0 0"/></g></g></g><g clip-path="url(#cP)"><g clip-path="url(#cQ)"><g clip-path="url(#cR)"><path fill="#a6a6a6" d="m30.175781 4.050781-1.535156.175781 6.785156 59.359376 1.53125-.175782Zm0 0"/></g></g></g><g clip-path="url(#cS)"><g clip-path="url(#cT)"><g clip-path="url(#cU)"><path fill="#a6a6a6" d="M26.710938 4.449219 25.175781 4.625l6.785157 59.359375 1.53125-.175781Zm0 0"/></g></g></g><g clip-path="url(#cV)"><g clip-path="url(#cW)"><g clip-path="url(#cX)"><path fill="#a6a6a6" d="m23.238281 4.84375-1.535156.175781 6.785156 59.359375 1.535157-.175781Zm0 0"/></g></g></g><g clip-path="url(#cY)"><g clip-path="url(#cZ)"><g clip-path="url(#da)"><path fill="#a6a6a6" d="m19.769531 5.242188-1.535156.175781 6.785156 59.359375 1.535157-.175782Zm0 0"/></g></g></g><g clip-path="url(#db)"><g clip-path="url(#dc)"><g clip-path="url(#dd)"><path fill="#a6a6a6" d="m16.296875 5.636719-1.53125.175781 6.78125 59.359375 1.535156-.175781Zm0 0"/></g></g></g><g clip-path="url(#de)"><g clip-path="url(#df)"><g clip-path="url(#dg)"><path fill="#a6a6a6" d="m12.832031 6.035156-1.53125.175782 6.78125 59.359374 1.535157-.175781Zm0 0"/></g></g></g><g clip-path="url(#dh)"><g clip-path="url(#di)"><g clip-path="url(#dj)"><path fill="#a6a6a6" d="m9.359375 6.429688-1.53125.175781 6.785156 59.359375 1.53125-.175782Zm0 0"/></g></g></g><g clip-path="url(#dk)"><g clip-path="url(#dl)"><g clip-path="url(#dm)"><path fill="#a6a6a6" d="m5.890625 6.828125-1.53125.175781 6.785156 59.359375 1.53125-.175781Zm0 0"/></g></g></g><g clip-path="url(#dn)"><g clip-path="url(#do)"><g clip-path="url(#dp)"><path fill="#a6a6a6" d="M.972656 8.101562 7.59375 66.050781c.480469.277344 1.027344.449219 1.609375.480469L2.429688 7.269531c-.558594.164063-1.054688.453125-1.457032.832031Zm0 0"/></g></g></g></g></g></g></g><g clip-path="url(#dq)"><g clip-path="url(#dr)"><g clip-path="url(#ds)"><path fill="#545454" d="M138.425781 174.867188c.066407.570312.160157 1.136718.28125 1.699218.121094.558594.265625 1.113282.441407 1.660156.175781.546876.378906 1.085938.605468 1.613282.230469.527344.480469 1.039062.761719 1.542968.277344.503907.582031.988282.90625 1.460938.328125.472656.675781.929688 1.046875 1.367188.371094.4375.761719.859374 1.175781 1.257812.414063.398438.84375.777344 1.292969 1.136719.449219.355469.917969.691406 1.398438 1.003906.484374.308594.980468.597656 1.488281.859375.511719.261719 1.035156.5 1.570312.710938.53125.210937 1.074219.398437 1.628907.554687.550781.160156 1.109374.289063 1.675781.394531.5625.101563 1.132812.175782 1.703125.222656.574218.050782 1.148437.066407 1.722656.058594.574219-.007812 1.144531-.046875 1.71875-.109375.570312-.066406 1.136719-.160156 1.695312-.28125.5625-.121093 1.117188-.269531 1.664063-.445312.546875-.171875 1.082031-.375 1.609375-.601563.527344-.230468 1.042969-.484375 1.546875-.761718.5-.277344.988281-.582032 1.460937-.90625.472657-.328126.929688-.675782 1.367188-1.046876.4375-.371093.855469-.765624 1.257812-1.175781.398438-.414062.777344-.84375 1.132813-1.292969.359375-.449218.691406-.917968 1.003906-1.398437.3125-.484375.601563-.980469.863281-1.492187.261719-.507813.5-1.03125.710938-1.566407.210938-.535156.394531-1.078125.554688-1.628906.15625-.550781.289062-1.109375.390624-1.675781.105469-.566406.179688-1.132813.226563-1.707032.046875-.570312.066406-1.144531.058594-1.71875-.011719-.574218-.046875-1.148437-.113281-1.71875-.0625-.570312-.15625-1.136718-.277344-1.695312-.121094-.5625-.269532-1.117188-.445313-1.664062-.175781-.546876-.375-1.085938-.605469-1.613282-.226562-.527344-.480468-1.039062-.757812-1.542968-.28125-.5-.582031-.988282-.910156-1.460938-.324219-.472656-.675782-.929688-1.046875-1.367188-.371094-.4375-.761719-.855468-1.175781-1.257812-.410157-.398438-.84375-.777344-1.292969-1.136719-.449219-.355469-.914063-.691406-1.398438-1-.480469-.3125-.976562-.601562-1.488281-.863281-.511719-.261719-1.03125-.5-1.566406-.710938-.535156-.210937-1.078125-.398437-1.628906-.554687-.554688-.160156-1.113282-.289063-1.675782-.390625-.566406-.105469-1.136718-.179688-1.707031-.226562-.574219-.046876-1.144531-.066407-1.71875-.058594-.574219.007812-1.148437.046875-1.71875.109375-.570313.066406-1.136719.160156-1.699219.28125-.5625.121093-1.113281.269531-1.664062.445312-.546875.175781-1.082032.375-1.609375.605469-.527344.226562-1.042969.480469-1.542969.757812-.503906.277344-.992188.582032-1.464844.910157-.472656.324219-.925781.671875-1.363281 1.042969-.441406.375-.859375.765624-1.257813 1.175781-.398437.414062-.777343.84375-1.136718 1.292969-.355469.453124-.691406.917968-1.003906 1.398437-.3125.484375-.597657.980469-.859376 1.492187-.265624.511719-.5 1.03125-.710937 1.566407-.214844.535156-.398437 1.078125-.554687 1.628906-.160157.550781-.289063 1.109375-.394532 1.675781-.101562.566406-.179687 1.132813-.226562 1.707032-.046875.570312-.066406 1.144531-.054688 1.71875.007813.574218.042969 1.148437.109375 1.71875Zm0 0"/><g mask="url(#dt)"><g clip-path="url(#du)" transform="translate(138 155)"><g clip-path="url(#dv)"><g clip-path="url(#dw)"><g clip-path="url(#dx)"><path fill="#a6a6a6" d="M2.441406 19.636719c.113282 1.011719.328125 2.003906.640625 2.972656.308594.96875.710938 1.898437 1.207031 2.789063.492188.890624 1.070313 1.726562 1.726563 2.503906.660156.777344 1.386719 1.480468 2.183594 2.113281.796875.636719 1.648437 1.183594 2.554687 1.652344.90625.464843 1.847656.835937 2.828125 1.117187.976563.28125 1.972657.464844 2.988281.546875 1.015626.085938 2.03125.070313 3.042969-.046875 1.011719-.117187 2-.328125 2.972657-.640625.96875-.308593 1.898437-.710937 2.789062-1.207031.890625-.492188 1.722656-1.070312 2.5-1.726562.777344-.660157 1.484375-1.386719 2.117188-2.183594.632812-.796875 1.183593-1.648438 1.648437-2.554688.46875-.90625.839844-1.847656 1.121094-2.828125.28125-.976562.460937-1.976562.546875-2.992187.082031-1.011719.066406-2.027344-.046875-3.039063-.117188-1.011719-.332031-2-.640625-2.972656-.3125-.96875-.714844-1.898437-1.207032-2.789063-.496093-.890624-1.070312-1.726562-1.730468-2.503906-.65625-.773437-1.386719-1.480468-2.183594-2.113281-.796875-.632813-1.648438-1.183594-2.550781-1.652344-.90625-.464843-1.851563-.835937-2.828125-1.117187-.980469-.28125-1.976563-.464844-2.992188-.546875-1.015625-.085938-2.027344-.066407-3.039062.046875-1.011719.117187-2.003906.328125-2.972656.640625-.96875.308593-1.902344.710937-2.792969 1.207031-.886719.492188-1.722657 1.070312-2.5 1.726562-.777344.660157-1.480469 1.386719-2.117188 2.183594-.632812.796875-1.183593 1.648438-1.648437 2.554688-.464844.90625-.839844 1.847656-1.117188 2.828125-.28125.980469-.464844 1.976562-.546875 2.992187-.085937 1.011719-.070312 2.027344.046875 3.039063Zm0 0"/></g></g></g></g></g></g></g></g><g clip-path="url(#dy)"><g clip-path="url(#dz)"><path fill="#fff" d="M23.296875 174.542969h328.433594v66.621093H23.296875Zm0 0"/></g></g><g clip-path="url(#dA)"><path fill-rule="evenodd" d="M54.316406 192.304688c22.445313-2.726563 37.71875-2.667969 46.984375-2.75 5.03125-.03125 9.542969 3.992187 2.09375 4.472656-5.226562.332031-2.640625.339844-7.570312.339844-4.113281-.011719-8.378907.578124-8.035157 1.933593.207032.8125 1.953126 2.722657 4.886719 2.828125 5.5625.199219 10.625-.152344 16.246094-.136718 2.859375 0 4.46875-.332032 7.339844-.304688 6.601562.085938-.773438 3.777344 4.371093 3.777344 7.457032 0 15.953126.492187 23.308594.59375 4.644532.070312 6.574219 2.648437 2.722656 3.382812-2.238281.4375-15.085937.421875-18.597656.421875-6.050781 0-1.054687-3.738281-9.820312-1.386719-3.128906.839844-2.535156.660157-3.4375 1.683594-.703125.792969-1.878906 3.652344 4.238281 3.652344 3.222656 0 4.007813 1.730469 8.300781 1.730469h7.160156c3.941407 0 12.957032 3.25 6.875 3.25-2.503906 0-10.535156-.039063-11.609374 1.03125-4.652344 4.613281 15.683593 3.875 18.910156 3.875 7.160156 0 8.457031-4.609375 12.757812-4.609375 2.039063 0 .242188.058594 2.421875.125.910157.027344 1.660157-.089844 2.351563.585937 1.972656 1.957031-7.925782 1.828125-5.160156 4.558594.972656.964844 3.5625 1.808594 5.863281 1.734375 3.414062-.097656 7.78125-.253906 9.296875-.421875 1.089844-.121094 1.523437-.398437 1.523437-1.765625 0-1.078125-2.417969-1.332031-3.300781-1.332031-.890625 0-6.699219-.777344-4.476562-1.207031 2.28125-.429688 1.417968-1.917969 4.671874-1.917969 3.269532 0 5.746094.03125 5.832032-3.542969.027344-1.085938.082031-2.292969.28125-2.496094.359375-.351562 1.792968-1.0625 2.863281-1.0625 3.222656 0 11.734375.363282 12.839844 2.835938.324219.722656.714843 2.128906-.359375 2.128906h-7.554688c-2.8125 0-3.65625 2.136719-1.042968 2.136719 6.085937 0 13.972656.707031 20.769531.707031 1.074219 0 7.160156-.359375 7.878906.347656 1.070313 1.066406-1.082031 2.128906-1.082031 3.195313 0 2.484375 13.253906 1.777343 15.757812 1.777343 1.433594 0 5.375-1.066406 5.730469-2.132812.355469-.710938-.378906-1.535156-.71875-1.414062-1.167969.402343-12.203125-.589844-10.664063-1.710938v-1.421875c0-.710937 8.160157-1.132813 8.160157-1.484375V213.25c0-1.066406-8.953125-1.066406-10.386719-1.066406-6.75 0-13.847656-4.359375-3.066406-4.222656 10.683594.148437 21.8125.597656 32.144531.660156 4.414063.03125 3.320313-4.25 6.722656-4.25h8.355469c3.90625 0 5.703125-3.1875.238281-3.1875-11.09375 0-15.746093-1.066406-26.847656-1.066406-2.152344 0-8.234375-2.195313-6.804687-2.914063 3.582031-1.773437 12.527343 0 17.183593 0 3.941407.359375 15.777344.757813 18.976563-.707031.277344-.121094.710937-.285156 1.246094-.453125-1.441407-1.464844-9.121094-.007813-9.121094-1.585938 0-2.324219-7.640625-4.074219-.082032-4.546875 3.964844-.253906 24.292969.320313 25.816407.320313 11.125 0 21.859375.300781 32.972656.300781-27.851563-16.402344-226.527344-18.945312-266.355469 1.773438"/></g><g clip-path="url(#dB)"><path fill="#ffd827" fill-rule="evenodd" d="M156.167969 137.957031c-7.296875 3.140625-13.550781 7.140625-12.773438 14.667969-8.539062 2.914062-23.746093 6.5-22.25 18.511719.164063 1.695312 1.699219 4.484375 2.035157 5.898437-8.929688.660156-17.398438 1.460938-25.242188 2.421875-1.015625-5.40625-1.550781-10.980469-1.550781-16.6875 0-26.957031 11.820312-51.253906 30.542969-67.960937l.019531.023437c-.101563.179688-.097657.421875.035156.625l15.875 22.921875c-.132813.207032-.152344.441406-.039063.605469m17.660157 17.585937c-.511719.09375-.984375.203126-1.429688.324219l-13.796875-19.605469c-.117187-.160156-.351562-.230468-.578125-.171874L128.8125 94.1875c-.144531-.191406-.363281-.289062-.574219-.257812l-.117187-.167969c15.160156-13.066407 34.644531-21.242188 55.972656-22.035157l-1.242188 3.515626c-.203124.023437-.402343.171874-.488281.394531l-10.714843 30.417969c-.246094 0-.449219.125-.515626.316406Zm53.609375-33.871093c-.082032 0-2.003906.382812-2.089844.382812-.164062 0-.890625-.210937-.988281-.058593-.226563.339843-.40625 1.214843-.648438 1.464843-.160156.152344.082031.152344-.40625.152344-.476562 0-1.160156.15625-1.527343 0-.566407-.230469-1.621094-.902344-3.078126-.726563-.246093.027344-.480468-.164062-.648437-.25-.070313 0-.480469-.234374-.480469-.398437 0-1.160156 2.863282-1.457031 2.863282-1.972656-.726563 0-3.027344-.546875-3.917969-.546875-.71875 0-1.289063 0-1.773438-.234375-.734375-.324219-2.183593-1.054688-3.152343-1.054688-1.222657 0-3.238282.242188-4.207032-.402343 0-.648438 2.828125-1.300782 3.476563-1.382813 2.507812-.324219 5.820312-1.707031 8.246093-1.707031 1.074219 0 2.457032.222656 3.339844.546875 1 .371093.941406.878906 1.703125.636719 2.082031-.671876 2.949219-.332032 2.777344.769531 1.664063.210937 4.039063.492187 5.234375.738281 3.636719.746094 2.792969 3.335938 4.847656 5.398438.324219.332031-2.628906-.304688-2.945312-.304688-1.054688 0-2.914063.164062-3.71875-.238281-.25-.082031-2.589844-.8125-2.90625-.8125Zm-26.597656-31.039063c50.191406 0 91.117187 40.925782 91.117187 91.109375 0 5.4375-.488281 10.746094-1.40625 15.914063-6.386719-.664063-13.253906-1.246094-20.457031-1.753906-.769532-7.410157-1.707032-15.882813-2.304688-22.269532-.445312-4.753906-4.515625-10.269531-9.222656-11.074218-18.929688-3.222657-42.523438-3.335938-61.054688-1.132813-.296874.035156-.601562.0625-.894531.101563-.070312-.054688-.132812-.078126-.191406-.078126-3.539063-5.34375-12.703125-6.726562-19.308594-6.300781l10.164063-28.824219c.070312-.1875-.019532-.398437-.199219-.5625L184.460938 76.375c.078124-.226562.027343-.464844-.121094-.613281l1.4375-4.082031c.574218-.011719 1.144531-.019532 1.714844-.019532Zm0 0"/></g><g clip-path="url(#dC)"><g clip-path="url(#dD)"><path fill="#f1ac00" d="M96.386719 71.660156h182.222656v107.796875H96.386719Zm0 0"/></g></g><g clip-path="url(#dE)"><path fill="#fff" d="M119.371094 232.421875h156.648437v36.492187H119.371094Zm0 0"/></g><g clip-path="url(#dF)"><path d="m210.019531 93.769531 3.472657-4.058593-4.699219.761718c-.304688.050782-.625-.0625-.789063-.320312-.277344-.433594-.195312-1.316406 2.015625-3.019532 3.640625-2.804687 7.867188-2.71875 7.867188-2.71875-1.617188-.484374-3.285157-.625-4.5625-.644531-2.484375-.035156-4.859375 1.019531-6.476563 2.886719-1.65625 1.917969-2.503906 4.0625-2.503906 4.0625-8.457031-1.339844-13.257812 11.65625-13.257812 11.65625 6-7.273438 10.839843-9.070312 12.636718-9.476562.351563-.078126 1-.035157 1.34375.078124 1.382813.445313 2.808594-.210937 2.808594-.210937 1.339844-.398437 2.144531 1.003906 2.144531 1.003906Zm0 0"/></g><g clip-path="url(#dG)"><path d="M222.914062 96.617188s-.4375-.511719-1.140624-1.050782c-1.488282-1.148437-3.488282-1.386718-5.21875-.636718-.492188.214843-1.027344.492187-1.523438.847656 0 0 2.101562-.769532 4.414062.015625 1.40625.476562 1.597657.902343 1.535157 1.167969-.039063.15625-.179688.269531-.339844.296874l-2.488281.421876 2.445312 1.4375s.160156-.839844.902344-.871094c0 0 .828125.085937 1.445312-.375.152344-.113282.46875-.246094.65625-.269532.972657-.101562 3.710938-.027343 7.980469 2.589844 0 0-4.664062-5.691406-8.667969-3.574218Zm0 0"/></g><g clip-path="url(#dH)"><path d="M210.292969 102.574219s-3.578125-.917969-5.691407 3.660156c0 0 1.976563-2.3125 4.675782-2.667969.371094-.050781.753906-.015625 1.101562.113282.359375.132812.9375.203124 1.316406-.480469 0 0 .492188-2.230469 3.902344-1.492188 0 0-2.832031-2.164062-5.304687.867188Zm0 0"/></g><g clip-path="url(#dI)"><g clip-path="url(#dJ)"><g clip-path="url(#dK)"><path fill="#545454" d="m213.972656 138.726562-30.890625-4.992187-7.363281 9.664063-26.984375 35.429687 5.503906-57.003906-.878906-.066407 5.257813-54.535156c.867187-.222656 1.585937-.980468 1.667968-1.941406.097656-1.230469-.792968-2.328125-2.019531-2.425781-1.230469-.097657-2.328125.789062-2.425781 2.019531-.082032.964844.460937 1.84375 1.28125 2.234375l-5.257813 54.535156-.882812-.066406-5.984375 62.277344-.066406.085937 43.296874 32.980469 7.925782-10.40625-17.066406-12.996094 16.589843-21.78125-8.664062-6.601562-16.566407 21.75-8.902343-6.777344 22.921875-30.09375 34.628906 26.378906 7.453125-9.785156-24.285156-18.5 23.769531 4.320313 4.242188-5.570313-10.519532-22.078125 24.460938 18.632812 7.453125-9.785156-43.355469-33.023437-7.40625 9.726562Zm0 0"/></g></g></g><path fill="#289db9" d="M72.630582 262.655953c-1.511719 0-2.917969-.179687-4.21875-.53125-1.304687-.363281-2.609375-.90625-3.921875-1.625.28125-1.476563.421875-3.359375.421875-5.640625.84375-.238281 1.941406-.359375 3.296875-.359375.125 2.117187.515625 3.605469 1.171875 4.46875.65625.855469 1.773437 1.28125 3.359375 1.28125 1.332031 0 2.320312-.28125 2.96875-.84375.644531-.5625.96875-1.273437.96875-2.140625 0-.664062-.199219-1.242188-.59375-1.734375-.398438-.488281-.902344-.90625-1.515625-1.25-.605469-.351563-1.445313-.78125-2.515625-1.28125-1.511719-.695313-2.742188-1.347656-3.6875-1.953125-.9375-.613281-1.746094-1.429688-2.421875-2.453125-.667969-1.03125-1-2.3125-1-3.84375 0-2.289063.738281-4.03125 2.21875-5.21875 1.488281-1.1875 3.441406-1.78125 5.859375-1.78125 1.289062 0 2.578125.15625 3.859375.46875s2.253906.683594 2.921875 1.109375c0 2.273438.082031 3.984375.25 5.140625-.386719.1875-.871094.328125-1.453125.421875-.585937.09375-1.164063.140625-1.734375.140625-.335938-1.882813-.835938-3.1875-1.5-3.90625-.65625-.71875-1.53125-1.078125-2.625-1.078125-1.011719 0-1.820312.234375-2.421875.703125-.59375.46875-.890625 1.148437-.890625 2.03125 0 .71875.21875 1.351563.65625 1.890625.445312.53125 1 .992188 1.65625 1.375.664062.375 1.570312.828125 2.71875 1.359375 1.53125.71875 2.773438 1.382813 3.734375 1.984375.957031.59375 1.769531 1.390625 2.4375 2.390625.664063 1 1 2.230469 1 3.6875 0 2.15625-.773437 3.898437-2.3125 5.21875-1.542969 1.3125-3.773437 1.96875-6.6875 1.96875Zm23.62512 0c-2.4375 0-4.574219-.53125-6.40625-1.59375-1.824219-1.070313-3.234375-2.554687-4.234375-4.453125-.992187-1.90625-1.484375-4.078125-1.484375-6.515625 0-2.457031.519531-4.617187 1.5625-6.484375 1.039062-1.875 2.484375-3.316406 4.328125-4.328125 1.84375-1.019531 3.921875-1.53125 6.234375-1.53125 2.394531 0 4.515625.507813 6.359375 1.515625 1.84375 1 3.273437 2.417969 4.296875 4.25 1.03125 1.824219 1.546875 3.933594 1.546875 6.328125 0 2.460937-.511719 4.65625-1.53125 6.59375-1.011719 1.9375-2.445313 3.460937-4.296875 4.5625-1.855469 1.105469-3.980469 1.65625-6.375 1.65625Zm.578125-2.34375c1.84375 0 3.285156-.878906 4.328125-2.640625 1.039062-1.769531 1.5625-4.101562 1.5625-7 0-1.957031-.296875-3.75-.890625-5.375-.585937-1.632812-1.414063-2.921875-2.484375-3.859375-1.074219-.945313-2.292969-1.421875-3.65625-1.421875-1.773438 0-3.183594.820312-4.234375 2.453125-1.054687 1.636719-1.578125 3.882813-1.578125 6.734375 0 2.011719.257812 3.867188.78125 5.5625.53125 1.699219 1.3125 3.046875 2.34375 4.046875 1.039062 1 2.316406 1.5 3.828125 1.5Zm33.824958-7.78125c0 2.15625-.152344 3.859375-.453125 5.109375-.304688 1.242188-.84375 2.25-1.625 3.03125-1.386719 1.324219-3.433594 1.984375-6.140625 1.984375-2.292969 0-4.109375-.3125-5.453125-.9375-1.335938-.625-2.292969-1.566406-2.875-2.828125-.574219-1.269531-.859375-2.9375-.859375-5v-10c0-1.03125-.0625-1.773438-.1875-2.234375-.117187-.46875-.324219-.800781-.625-1-.292969-.207031-.773437-.363281-1.4375-.46875-.148437-.613281-.21875-1.351563-.21875-2.21875.957031.074219 2.472656.109375 4.546875.109375 2.875 0 4.875-.035156 6-.109375 0 .9375-.074219 1.679687-.21875 2.21875-.71875.105469-1.234375.25-1.546875.4375-.304687.1875-.515625.523437-.640625 1-.117188.480469-.171875 1.234375-.171875 2.265625v9.4375c0 2.25.382813 3.953125 1.15625 5.109375.78125 1.15625 2.039063 1.734375 3.78125 1.734375.625 0 1.25-.117188 1.875-.359375.625-.238281 1.140625-.597656 1.546875-1.078125.425781-.539062.738281-1.269531.9375-2.1875.207031-.925781.3125-2.285156.3125-4.078125v-7.578125c0-1.195312-.074219-2.109375-.21875-2.734375-.148438-.632813-.386719-1.09375-.71875-1.375-.335938-.289063-.835938-.488281-1.5-.59375-.125-.6875-.1875-1.425781-.1875-2.21875.882812.074219 2.128906.109375 3.734375.109375 1.507813 0 2.71875-.035156 3.625-.109375 0 .867187-.074219 1.605469-.21875 2.21875-.617187.105469-1.078125.292969-1.390625.5625-.3125.273437-.53125.714844-.65625 1.328125-.117188.605469-.171875 1.484375-.171875 2.640625Zm25.856114-14.5625c-.054687 1.867187.140625 3.980469.578125 6.34375-.71875.3125-1.679688.46875-2.875.46875-.1875-1.570313-.59375-2.71875-1.21875-3.4375s-1.570312-1.078125-2.828125-1.078125h-1.265625v16.328125c0 1 .082031 1.742187.25 2.21875.164062.480469.460938.824219.890625 1.03125.4375.199219 1.125.324219 2.0625.375.1875.449219.28125 1.1875.28125 2.21875-1.386719-.0742188-3.371094-.109375-5.953125-.109375-3.023438 0-5.261719.0351562-6.71875.109375 0-.832031.109375-1.570313.328125-2.21875.9375-.050781 1.632813-.175781 2.09375-.375.46875-.207031.796875-.554687.984375-1.046875.195312-.488281.296875-1.222656.296875-2.203125v-16.328125h-.828125c-1.40625 0-2.421875.355469-3.046875 1.0625-.625.699219-1.117187 1.851562-1.46875 3.453125-1.292969 0-2.242187-.15625-2.84375-.46875.21875-1.019531.398437-2.101563.546875-3.25.144531-1.15625.21875-2.1875.21875-3.09375 1.71875.074219 5.148438.109375 10.296875.109375 4.28125 0 7.6875-.035156 10.21875-.109375Zm25.320723 18.625c0 .980469.0625 1.714844.1875 2.203125.132813.492188.367187.839844.703125 1.046875.332031.199219.835938.324219 1.515625.375.164063.46875.25 1.210937.25 2.21875-1.25-.0742188-2.949219-.109375-5.09375-.109375-2.324219 0-4.226563.0351562-5.703125.109375 0-.90625.09375-1.644531.28125-2.21875.664062-.050781 1.160156-.175781 1.484375-.375.320313-.207031.550781-.554687.6875-1.046875.132813-.488281.203125-1.222656.203125-2.203125v-5.640625c-4.117188 0-7.039062.109375-8.765625.328125v5.3125c0 .980469.070313 1.714844.21875 2.203125.144531.492188.382813.839844.71875 1.046875.332031.199219.832031.324219 1.5.375.144531.5.21875 1.242187.21875 2.21875-1.21875-.0742188-2.917969-.109375-5.09375-.109375-2.292969 0-4.183594.0351562-5.671875.109375 0-.863281.085938-1.601563.265625-2.21875.664063-.050781 1.164063-.175781 1.5-.375.332031-.207031.5625-.554687.6875-1.046875.132813-.488281.203125-1.222656.203125-2.203125v-12.8125c0-.976563-.070312-1.703125-.203125-2.171875-.125-.46875-.351563-.800781-.671875-1-.324219-.207031-.828125-.347656-1.515625-.421875-.179687-.519531-.265625-1.257813-.265625-2.21875 1.226562.074219 3.0625.109375 5.5.109375 2.070312 0 3.828125-.035156 5.265625-.109375 0 .40625-.011719.804687-.03125 1.1875-.023437.386719-.09375.730469-.21875 1.03125-.667969.074219-1.167969.210937-1.5.40625-.335937.1875-.570313.523437-.703125 1-.136719.480469-.203125 1.210937-.203125 2.1875v4.921875h8.765625v-4.921875c0-.976563-.070312-1.703125-.203125-2.171875-.136719-.46875-.367187-.800781-.6875-1-.324219-.207031-.828125-.347656-1.515625-.421875-.167969-.519531-.25-1.257813-.25-2.21875 1.257812.074219 3.085938.109375 5.484375.109375 2.101563 0 3.875-.035156 5.3125-.109375 0 .960937-.101563 1.699219-.296875 2.21875-.667969.074219-1.164062.210937-1.484375.40625-.324219.1875-.554687.523437-.6875 1-.125.480469-.1875 1.210937-.1875 2.1875Zm24.457501 6.0625c-2.324219 0-4.390625-.53125-6.203125-1.59375-1.804688-1.070313-3.210938-2.554687-4.21875-4.453125-1-1.90625-1.5-4.085938-1.5-6.546875 0-2.601563.5625-4.832031 1.6875-6.6875 1.125-1.851563 2.613281-3.253906 4.46875-4.203125 1.851562-.945312 3.867188-1.421875 6.046875-1.421875 2.65625 0 5.285156.625 7.890625 1.875-.261719 1.5-.390625 3.355469-.390625 5.5625-.554687.28125-1.484375.421875-2.796875.421875-.054688-2.050781-.464844-3.507812-1.234375-4.375-.761719-.863281-1.859375-1.296875-3.296875-1.296875-2.242188 0-3.902344.875-4.984375 2.625-1.074219 1.75-1.609375 3.9375-1.609375 6.5625 0 3.15625.6875 5.730469 2.0625 7.71875 1.375 1.980469 3.351562 2.96875 5.9375 2.96875.957031 0 1.945312-.148437 2.96875-.453125 1.03125-.3125 2.035156-.757812 3.015625-1.34375.195313.179688.375.417969.53125.71875.15625.292969.253906.585938.296875.875-1.199219.980469-2.496094 1.734375-3.890625 2.265625-1.398437.5195312-2.992187.78125-4.78125.78125Zm23.226691 0c-2.4375 0-4.574219-.53125-6.40625-1.59375-1.824219-1.070313-3.234375-2.554687-4.234375-4.453125-.992187-1.90625-1.484375-4.078125-1.484375-6.515625 0-2.457031.519531-4.617187 1.5625-6.484375 1.039062-1.875 2.484375-3.316406 4.328125-4.328125 1.84375-1.019531 3.921875-1.53125 6.234375-1.53125 2.394531 0 4.515625.507813 6.359375 1.515625 1.84375 1 3.273437 2.417969 4.296875 4.25 1.03125 1.824219 1.546875 3.933594 1.546875 6.328125 0 2.460937-.511719 4.65625-1.53125 6.59375-1.011719 1.9375-2.445313 3.460937-4.296875 4.5625-1.855469 1.105469-3.980469 1.65625-6.375 1.65625Zm.578125-2.34375c1.84375 0 3.285156-.878906 4.328125-2.640625 1.039062-1.769531 1.5625-4.101562 1.5625-7 0-1.957031-.296875-3.75-.890625-5.375-.585937-1.632812-1.414063-2.921875-2.484375-3.859375-1.074219-.945313-2.292969-1.421875-3.65625-1.421875-1.773438 0-3.183594.820312-4.234375 2.453125-1.054687 1.636719-1.578125 3.882813-1.578125 6.734375 0 2.011719.257812 3.867188.78125 5.5625.53125 1.699219 1.3125 3.046875 2.34375 4.046875 1.039062 1 2.316406 1.5 3.828125 1.5Zm37.512458-.09375c.195313.648437.296875 1.386719.296875 2.21875-1.148438-.0742188-2.796875-.109375-4.953125-.109375-2.46875 0-4.242187.0351562-5.3125.109375 0-.957031.082031-1.695313.25-2.21875.570313-.125.988281-.273437 1.25-.453125.269531-.175781.40625-.4375.40625-.78125 0-.28125-.15625-.789062-.46875-1.53125l-.828125-1.9375c-3.179688 0-6.09375.085938-8.75.25l-.46875 1.1875c-.242188.667969-.359375 1.195312-.359375 1.578125 0 .980469.570313 1.542969 1.71875 1.6875.164063.574219.25 1.3125.25 2.21875-.8125-.0742188-2.089844-.109375-3.828125-.109375-1.492188 0-2.570312.0351562-3.234375.109375 0-.882813.09375-1.625.28125-2.21875.601563-.101563 1.085937-.398437 1.453125-.890625.375-.488281.847656-1.4375 1.421875-2.84375l7.53125-18.4375c.332031-.070312.671875-.117188 1.015625-.140625.351562-.03125.734375-.046875 1.140625-.046875l8.21875 18.40625c.5 1.125.894531 1.953125 1.1875 2.484375.300781.523437.582031.886719.84375 1.09375.269531.199219.582031.324219.9375.375Zm-10.25-6.71875-1.9375-4.515625c-.625-1.414062-1.1875-2.945312-1.6875-4.59375-.480469 1.585938-1.007813 3.105469-1.578125 4.5625l-1.796875 4.546875Zm20.904305 9.15625c-1.511719 0-2.917969-.179687-4.21875-.53125-1.304687-.363281-2.609375-.90625-3.921875-1.625.28125-1.476563.421875-3.359375.421875-5.640625.84375-.238281 1.941406-.359375 3.296875-.359375.125 2.117187.515625 3.605469 1.171875 4.46875.65625.855469 1.773437 1.28125 3.359375 1.28125 1.332031 0 2.320312-.28125 2.96875-.84375.644531-.5625.96875-1.273437.96875-2.140625 0-.664062-.199219-1.242188-.59375-1.734375-.398438-.488281-.902344-.90625-1.515625-1.25-.605469-.351563-1.445313-.78125-2.515625-1.28125-1.511719-.695313-2.742188-1.347656-3.6875-1.953125-.9375-.613281-1.746094-1.429688-2.421875-2.453125-.667969-1.03125-1-2.3125-1-3.84375 0-2.289063.738281-4.03125 2.21875-5.21875 1.488281-1.1875 3.441406-1.78125 5.859375-1.78125 1.289062 0 2.578125.15625 3.859375.46875s2.253906.683594 2.921875 1.109375c0 2.273438.082031 3.984375.25 5.140625-.386719.1875-.871094.328125-1.453125.421875-.585937.09375-1.164063.140625-1.734375.140625-.335938-1.882813-.835938-3.1875-1.5-3.90625-.65625-.71875-1.53125-1.078125-2.625-1.078125-1.011719 0-1.820312.234375-2.421875.703125-.59375.46875-.890625 1.148437-.890625 2.03125 0 .71875.21875 1.351563.65625 1.890625.445312.53125 1 .992188 1.65625 1.375.664062.375 1.570312.828125 2.71875 1.359375 1.53125.71875 2.773438 1.382813 3.734375 1.984375.957031.59375 1.769531 1.390625 2.4375 2.390625.664063 1 1 2.230469 1 3.6875 0 2.15625-.773437 3.898437-2.3125 5.21875-1.542969 1.3125-3.773437 1.96875-6.6875 1.96875Zm32.421995-24.6875c-.054687 1.867187.140625 3.980469.578125 6.34375-.71875.3125-1.679688.46875-2.875.46875-.1875-1.570313-.59375-2.71875-1.21875-3.4375s-1.570312-1.078125-2.828125-1.078125h-1.265625v16.328125c0 1 .082031 1.742187.25 2.21875.164062.480469.460938.824219.890625 1.03125.4375.199219 1.125.324219 2.0625.375.1875.449219.28125 1.1875.28125 2.21875-1.386719-.0742188-3.371094-.109375-5.953125-.109375-3.023438 0-5.261719.0351562-6.71875.109375 0-.832031.109375-1.570313.328125-2.21875.9375-.050781 1.632813-.175781 2.09375-.375.46875-.207031.796875-.554687.984375-1.046875.195312-.488281.296875-1.222656.296875-2.203125v-16.328125h-.828125c-1.40625 0-2.421875.355469-3.046875 1.0625-.625.699219-1.117187 1.851562-1.46875 3.453125-1.292969 0-2.242187-.15625-2.84375-.46875.21875-1.019531.398437-2.101563.546875-3.25.144531-1.15625.21875-2.1875.21875-3.09375 1.71875.074219 5.148438.109375 10.296875.109375 4.28125 0 7.6875-.035156 10.21875-.109375Zm0 0"/><path fill="#f1ac00" d="M146.253918 293.726939c-.03125-.113281-.0625-.21875-.09375-.3125s-.0625-.207031-.09375-.34375c-.023438-.144531-.039062-.328125-.046875-.546875v-3.421875c0-.769531-.136719-1.3125-.40625-1.625-.273437-.3125-.703125-.46875-1.296875-.46875h-.90625v6.71875h-2.59375v-16.515625h3.921875c1.351563 0 2.332031.320313 2.9375.953125.601563.625.90625 1.574219.90625 2.84375v1.296875c0 1.699219-.570313 2.820313-1.703125 3.359375.664062.261719 1.117188.699219 1.359375 1.3125.25.605469.375 1.339844.375 2.203125v2.546875c0 .40625.015625.765625.046875 1.078125.03125.304687.109375.609375.234375.921875Zm-2.84375-14.15625v5.078125h1.015625c.488281 0 .867187-.125 1.140625-.375.28125-.257813.421875-.71875.421875-1.375v-1.625c0-.601563-.109375-1.035156-.328125-1.296875-.210938-.269531-.539062-.40625-.984375-.40625Zm28.464755 14.15625h-2.625l-.4375-3h-3.1875l-.453125 3h-2.375l2.640625-16.515625h3.796875Zm-5.921875-5.234375h2.5l-1.25-8.359375Zm20.285828-11.28125h4.109375c1.300781 0 2.269531.351563 2.90625 1.046875.644531.6875.96875 1.699219.96875 3.03125v8.359375c0 1.335937-.324219 2.351563-.96875 3.046875-.636719.6875-1.605469 1.03125-2.90625 1.03125h-4.109375Zm2.59375 2.359375v11.796875h1.46875c.40625 0 .726562-.113281.96875-.34375.238281-.238281.359375-.660156.359375-1.265625v-8.578125c0-.601563-.121094-1.019531-.359375-1.25-.242188-.238281-.5625-.359375-.96875-.359375Zm20.200055-2.359375h2.59375v16.515625h-2.59375Zm20.041663 12.71875c0 .59375.117187 1.015625.359375 1.265625.25.242188.578125.359375.984375.359375s.726563-.117187.96875-.359375c.25-.25.375-.671875.375-1.265625v-8.921875c0-.59375-.125-1.007812-.375-1.25-.242187-.25-.5625-.375-.96875-.375s-.734375.125-.984375.375c-.242188.242188-.359375.65625-.359375 1.25Zm-2.59375-8.75c0-1.34375.335937-2.367187 1.015625-3.078125.675781-.71875 1.648438-1.078125 2.921875-1.078125 1.269531 0 2.242187.359375 2.921875 1.078125.675781.710938 1.015625 1.734375 1.015625 3.078125v8.578125c0 1.34375-.339844 2.375-1.015625 3.09375-.679688.710938-1.652344 1.0625-2.921875 1.0625-1.273437 0-2.246094-.351562-2.921875-1.0625-.679688-.71875-1.015625-1.75-1.015625-3.09375Zm0 0"/></svg>